<svg version="1.1" id="Layer_1" xmlns="http://www.w3.org/2000/svg" xmlns:xlink="http://www.w3.org/1999/xlink" x="0px" y="0px"
	 width="100%" viewBox="0 0 1024 1024" enable-background="new 0 0 1024 1024" xml:space="preserve">
<path fill="#FFFFFF" opacity="1.000000" stroke="none" 
	d="
M1.000000,393.000000 
	C1.000000,262.000031 1.000000,131.500031 1.000000,1.000035 
	C342.333282,1.000023 683.666565,1.000023 1025.000000,1.000012 
	C1025.000000,342.333252 1025.000000,683.666504 1025.000000,1024.999756 
	C683.666809,1024.999878 342.333618,1024.999878 1.000207,1025.000000 
	C1.000000,814.500000 1.000000,604.000000 1.000000,393.000000 
M170.753387,853.918762 
	C171.054535,854.094849 171.355682,854.270874 171.637344,854.289429 
	C171.637344,854.289429 171.537598,854.412842 171.822556,854.951538 
	C172.469055,855.430359 173.115555,855.909119 173.822754,856.205933 
	C173.822754,856.205933 173.632248,856.229004 173.856766,856.760193 
	C174.185623,856.948181 174.514481,857.136169 174.891281,857.129700 
	C174.891281,857.129700 174.691086,857.133667 174.913025,857.697571 
	C175.244476,857.921814 175.575928,858.146057 176.150513,858.904602 
	C177.061020,859.614075 177.971527,860.323608 179.215042,861.535278 
	C179.731277,861.834534 180.247498,862.133850 180.767563,862.257935 
	C180.767563,862.257935 180.622437,862.356140 180.929016,862.868042 
	C181.584457,863.303894 182.239899,863.739807 182.916733,864.081970 
	C182.916733,864.081970 182.825775,864.113098 183.105515,864.621277 
	C183.592361,864.923828 184.079208,865.226318 184.798370,865.527466 
	C184.798370,865.527466 184.575180,865.591980 184.941055,866.026855 
	C185.592163,866.411438 186.243271,866.796082 186.911667,867.088684 
	C186.911667,867.088684 186.821625,867.114441 187.108932,867.631897 
	C187.615402,867.926270 188.121872,868.220642 188.521881,868.224426 
	C188.521881,868.224426 188.590042,868.526367 188.962204,868.964355 
	C189.619781,869.350403 190.277359,869.736389 190.953629,870.034729 
	C190.953629,870.034729 190.873138,870.074280 191.210419,870.606079 
	C192.119690,871.109985 193.028961,871.613892 193.955307,872.030884 
	C193.955307,872.030884 193.876587,872.071350 194.242691,872.613770 
	C195.368896,873.243591 196.495087,873.873413 197.746964,874.418823 
	C197.746964,874.418823 197.604034,874.368958 197.869156,874.856995 
	C198.216492,874.981506 198.563828,875.106018 198.915451,875.105042 
	C198.915451,875.105042 198.795715,875.142700 199.128006,875.687927 
	C200.070740,876.154907 201.013474,876.621887 201.967621,877.010132 
	C201.967621,877.010132 201.899078,877.050659 202.279449,877.521973 
	C202.833740,877.745667 203.388046,877.969299 203.937943,878.077332 
	C203.937943,878.077332 203.827682,878.112488 204.228500,878.676636 
	C231.544083,893.779053 261.061310,900.165588 292.945282,900.982239 
	C433.273224,900.987732 573.601135,900.995789 713.929077,900.991882 
	C722.259583,900.991638 730.590088,900.894958 739.790100,901.012329 
	C743.535645,900.615662 747.281128,900.218933 751.883362,899.967896 
	C762.578918,897.947449 773.274475,895.926941 784.712158,893.963684 
	C788.173096,892.781555 791.633972,891.599426 795.760742,890.238403 
	C796.567383,889.864624 797.374023,889.490784 798.063660,889.093140 
	C798.063660,889.093140 798.075012,889.211975 798.829407,889.124634 
	C801.934448,887.777954 805.039551,886.431335 808.050842,885.054565 
	C808.050842,885.054565 808.043518,885.152771 808.663208,885.067932 
	C809.172729,884.753174 809.682190,884.438477 810.066467,884.090271 
	C810.066467,884.090271 810.068054,884.219849 810.691223,884.123840 
	C811.199829,883.799438 811.708496,883.474976 812.087830,883.119812 
	C812.087830,883.119812 812.103699,883.251770 812.819824,883.116760 
	C815.278015,881.788147 817.736206,880.459473 820.069641,879.094543 
	C820.069641,879.094543 820.069763,879.224487 820.674011,879.097229 
	C821.162720,878.757263 821.651428,878.417297 822.054504,878.050598 
	C822.054504,878.050598 822.050537,878.140259 822.600769,878.031860 
	C822.859192,877.792175 823.117615,877.552429 823.233521,877.394043 
	C823.233521,877.394043 823.370911,877.483826 823.940430,877.270569 
	C824.620728,876.831787 825.301025,876.393066 826.660400,875.829407 
	C843.833618,865.221985 858.841492,852.205078 871.290955,835.729797 
	C871.290955,835.729797 871.417480,835.340942 871.300354,835.183105 
	C871.300354,835.183105 871.183289,835.341003 871.761108,835.143311 
	C871.956787,834.789612 872.152527,834.435913 872.765259,833.948242 
	C872.991699,833.726196 873.082886,833.458191 873.556763,832.781494 
	C874.096558,831.886963 874.636353,830.992432 875.084534,830.084290 
	C875.084534,830.084290 875.108398,830.173767 875.653687,829.849243 
	C876.171082,828.939331 876.688416,828.029419 877.105408,827.097107 
	C877.105408,827.097107 877.128052,827.197388 877.659546,826.887390 
	C877.924927,826.337708 878.190247,825.787964 878.257080,825.156433 
	C878.257080,825.156433 878.260071,825.371094 878.785828,825.135071 
	C878.928162,824.780579 879.070496,824.426025 879.088013,824.071777 
	C879.088013,824.071777 879.123535,824.191467 879.672119,823.864441 
	C880.154907,822.929626 880.637695,821.994751 881.036499,821.049072 
	C881.036499,821.049072 881.066589,821.128174 881.574707,820.778320 
	C881.806335,820.212769 882.038025,819.647217 882.119507,819.079285 
	C882.119507,819.079285 882.161743,819.223389 882.726257,818.861694 
	C883.301270,817.662415 883.876282,816.463196 884.332031,815.184570 
	C884.332031,815.184570 884.355957,815.325806 884.844910,814.978333 
	C885.064148,814.421814 885.283386,813.865295 885.368103,813.185791 
	C885.368103,813.185791 885.323669,813.362549 885.834656,813.124451 
	C885.936584,812.764099 886.038452,812.403748 886.046509,812.048889 
	C886.046509,812.048889 886.072449,812.139221 886.570251,811.772034 
	C886.764343,811.192810 886.958435,810.613647 887.047791,810.043457 
	C887.047791,810.043457 887.076538,810.144470 887.578125,809.779541 
	C887.773682,809.199219 887.969238,808.618896 888.053406,808.047058 
	C888.053406,808.047058 888.083862,808.154480 888.581482,807.782227 
	C888.757019,807.196533 888.932495,806.610840 889.029236,806.036194 
	C889.029236,806.036194 889.053894,806.111755 889.541748,805.637634 
	C889.759766,804.767334 889.977844,803.897095 890.066833,803.033203 
	C890.066833,803.033203 890.096191,803.158997 890.726746,802.827759 
	C891.883057,799.906372 893.039429,796.984985 894.081177,794.053467 
	C894.081177,794.053467 894.101318,794.166748 894.652527,793.687744 
	C902.839050,771.861267 906.381592,749.198364 906.981079,725.062378 
	C906.988220,623.503723 907.009827,521.945129 906.995361,420.386475 
	C906.989624,380.265320 906.903687,340.144135 907.022766,299.106476 
	C906.624573,293.133881 906.466187,287.132172 905.746460,281.198578 
	C905.241699,277.037354 903.971436,272.968994 903.012878,268.020264 
	C901.543640,260.987122 900.074341,253.953995 898.351013,246.152115 
	C896.601929,241.378128 894.852844,236.604141 893.080872,231.940964 
	C893.080872,231.940964 893.193726,231.932556 893.101929,231.208206 
	C892.104492,229.081100 891.107056,226.953979 890.084778,224.937119 
	C890.084778,224.937119 890.197449,224.928925 890.080017,224.197342 
	C888.439331,221.057281 886.798706,217.917221 885.120728,214.919830 
	C885.120728,214.919830 885.268005,214.912048 885.134216,214.297821 
	C884.797852,213.799866 884.461487,213.301910 884.090332,212.931473 
	C884.090332,212.931473 884.222534,212.930954 884.091431,212.330902 
	C883.747681,211.847122 883.403992,211.363342 883.026428,210.955948 
	C883.026428,210.955948 883.109253,210.944794 882.983948,210.306335 
	C882.304443,209.212143 881.624939,208.117950 880.833252,206.341583 
	C874.599854,198.217270 868.366394,190.092957 861.916687,181.460205 
	C861.625549,181.240646 861.334412,181.021088 860.970276,180.359100 
	C860.807129,180.065018 860.557617,179.926559 859.967957,179.434677 
	C859.660522,179.224945 859.353088,179.015213 859.046143,178.958496 
	C859.046143,178.958496 859.197876,178.938644 858.981628,178.414841 
	C858.675232,178.206512 858.368835,177.998199 858.046082,177.951233 
	C858.046082,177.951233 858.208191,177.946503 857.989624,177.406174 
	C857.681458,177.178116 857.373230,176.950058 856.995239,176.301025 
	C856.832397,176.023956 856.591003,175.900635 856.004089,175.416092 
	C855.685791,175.208664 855.367432,175.001251 855.050476,174.955048 
	C855.050476,174.955048 855.210144,174.932678 854.990601,174.408646 
	C854.680725,174.203888 854.370789,173.999130 854.044739,173.951111 
	C854.044739,173.951111 854.202209,173.946426 853.979370,173.421906 
	C853.668884,173.211746 853.358337,173.001587 852.954956,172.345078 
	C852.777039,172.053604 852.518005,171.922577 851.928833,171.498657 
	C851.645996,171.317429 851.363220,171.136200 850.789612,170.345734 
	C846.857361,167.237473 842.925171,164.129196 838.597900,160.612961 
	C838.113220,160.335892 837.628601,160.058838 837.103577,159.902908 
	C837.103577,159.902908 837.231201,159.899200 836.988953,159.403168 
	C836.667542,159.245148 836.346130,159.087128 836.019714,158.998734 
	C836.019714,158.998734 836.077698,158.959930 835.694275,158.470383 
	C834.812012,157.949020 833.929810,157.427658 833.032043,156.987656 
	C833.032043,156.987656 833.102356,156.943909 832.725220,156.425217 
	C831.641113,155.787323 830.556946,155.149414 829.357849,154.530380 
	C829.357849,154.530380 829.400879,154.638702 829.139648,154.146942 
	C828.794189,154.014450 828.448792,153.881958 828.095093,153.878662 
	C828.095093,153.878662 828.218262,153.838776 827.889465,153.290634 
	C826.946716,152.821365 826.004028,152.352081 825.048706,151.968613 
	C825.048706,151.968613 825.126587,151.930420 824.757385,151.443680 
	C824.198181,151.214325 823.638977,150.984985 823.077698,150.890762 
	C823.077698,150.890762 823.206909,150.851105 822.821045,150.274475 
	C819.658081,148.690231 816.495178,147.105988 813.222839,145.538727 
	C813.222839,145.538727 813.313721,145.601898 812.868103,145.090775 
	C810.265137,144.002579 807.662109,142.914398 805.058350,141.929352 
	C805.058350,141.929352 805.157715,141.901520 804.681885,141.360321 
	C781.038757,131.834763 756.432556,127.298553 730.053955,127.015846 
	C609.188721,127.009697 488.323456,126.996277 367.458191,127.003151 
	C341.322571,127.004639 315.186981,127.079140 288.179901,126.951027 
	C281.140259,127.963333 274.080078,128.852478 267.066589,130.021713 
	C259.675629,131.253891 252.329208,132.753555 244.161041,133.923035 
	C237.054260,136.249329 229.947495,138.575623 222.939850,140.929214 
	C222.939850,140.929214 222.938187,140.826401 222.204483,140.919220 
	C219.426254,142.254501 216.648041,143.589767 213.952484,144.953751 
	C213.952484,144.953751 213.961380,144.866714 213.355042,144.956818 
	C212.858429,145.279831 212.361816,145.602829 211.945816,145.958801 
	C211.945816,145.958801 211.933640,145.872559 211.277557,145.981583 
	C210.148178,146.634415 209.018799,147.287247 207.961014,147.974472 
	C207.961014,147.974472 207.962799,147.895081 207.408951,147.984970 
	C207.149612,148.226242 206.890259,148.467514 206.796295,148.662033 
	C206.796295,148.662033 206.673538,148.541748 206.091019,148.738815 
	C205.397766,149.168579 204.704514,149.598343 203.324966,150.136505 
	C180.344818,163.677826 161.184998,181.205307 146.832947,204.390472 
	C146.832947,204.390472 146.702881,204.822311 146.823395,204.868240 
	C146.823395,204.868240 146.802414,204.740997 146.268936,205.045029 
	C146.016083,205.599808 145.763214,206.154587 145.676529,206.819702 
	C145.676529,206.819702 145.697968,206.621384 145.172653,206.848953 
	C145.035141,207.204025 144.897629,207.559113 144.894409,207.918625 
	C144.894409,207.918625 144.857224,207.789520 144.313141,208.099838 
	C144.073120,208.674149 143.833115,209.248444 143.764496,209.856934 
	C143.764496,209.856934 143.713684,209.689713 143.203171,210.025391 
	C142.972458,210.588837 142.741760,211.152283 142.671204,211.818726 
	C142.671204,211.818726 142.680954,211.628571 142.173889,211.877197 
	C142.067093,212.236298 141.960297,212.595398 141.950943,212.949234 
	C141.950943,212.949234 141.924118,212.855408 141.419098,213.215744 
	C141.200058,213.789658 140.981018,214.363571 140.906815,214.934845 
	C140.906815,214.934845 140.868744,214.795044 140.338226,215.139191 
	C140.132339,215.732788 139.926468,216.326385 139.878326,216.923477 
	C139.878326,216.923477 139.837143,216.771164 139.267563,217.169067 
	C138.095169,219.748993 136.922775,222.328918 135.883423,224.926773 
	C135.883423,224.926773 135.858963,224.794785 135.290176,225.221954 
	C134.443497,227.451935 133.596817,229.681900 132.882004,231.936157 
	C132.882004,231.936157 132.866257,231.802994 132.306778,232.260483 
	C131.589294,234.496490 130.871826,236.732483 129.908432,239.719299 
	C128.924271,243.430298 127.940125,247.141312 126.268593,251.169098 
	C124.571739,259.437317 122.874886,267.705566 120.981674,276.794098 
	C120.375572,282.888672 119.769470,288.983276 119.050903,295.998474 
	C119.031509,397.993866 118.994858,499.989288 119.000946,601.984680 
	C119.003494,644.646729 119.096725,687.308777 118.985168,730.871399 
	C119.344307,735.979675 119.402283,741.131714 120.136635,746.185486 
	C121.117561,752.936096 122.623474,759.610413 123.795303,767.107727 
	C125.249680,772.746582 126.704063,778.385376 128.013763,784.777771 
	C130.983871,791.896362 133.953995,799.014893 136.952820,806.047241 
	C136.952820,806.047241 136.862320,806.038513 136.947906,806.650696 
	C137.271072,807.149597 137.594238,807.648499 137.947342,808.050476 
	C137.947342,808.050476 137.846268,808.042847 137.949249,808.646729 
	C138.275375,809.143433 138.601501,809.640137 138.955704,810.046936 
	C138.955704,810.046936 138.861938,810.038330 138.947144,810.649170 
	C139.272049,811.146423 139.596954,811.643738 139.953217,812.058716 
	C139.953217,812.058716 139.866135,812.071838 139.976578,812.699951 
	C140.529938,813.575500 141.083298,814.450989 141.631332,815.193359 
	C141.631332,815.193359 141.538193,815.288696 141.740707,815.921326 
	C142.441406,817.019897 143.142105,818.118530 143.881607,819.081665 
	C143.881607,819.081665 143.740891,819.087830 143.884491,819.689880 
	C144.229492,820.174377 144.574493,820.658875 144.949860,821.060425 
	C144.949860,821.060425 144.862534,821.073486 145.005051,821.694397 
	C145.619675,822.533813 146.234299,823.373169 146.885574,824.093445 
	C146.885574,824.093445 146.761276,824.102966 146.907150,824.647095 
	C147.159180,824.895752 147.411209,825.144348 147.610016,825.219788 
	C147.610016,825.219788 147.487259,825.353027 147.689590,825.917175 
	C148.068176,826.356995 148.446747,826.796814 148.867935,827.091614 
	C148.867935,827.091614 148.716904,827.099182 148.885559,827.692810 
	C149.245026,828.172058 149.604477,828.651306 150.008896,829.580627 
	C150.130188,829.901611 150.362228,830.069458 150.911316,830.638611 
	C151.194458,830.880676 151.477600,831.122681 151.695709,831.159058 
	C151.695709,831.159058 151.525436,831.291443 151.719452,831.863586 
	C152.107788,832.302673 152.496124,832.741699 152.910187,833.089661 
	C152.910187,833.089661 152.817642,833.109314 152.994614,833.667480 
	C153.487564,834.254028 153.980530,834.840637 154.703583,835.461975 
	C154.703583,835.461975 154.490387,835.368652 154.703476,835.931396 
	C155.115814,836.354980 155.528152,836.778503 155.992157,837.625366 
	C156.099838,837.934753 156.317459,838.091858 156.898483,838.645447 
	C157.204224,838.878784 157.509964,839.112122 157.764969,839.146606 
	C157.764969,839.146606 157.594467,839.260803 157.766037,839.789185 
	C158.047256,840.000793 158.328476,840.212341 158.520493,840.323975 
	C158.520493,840.323975 158.478500,840.451172 158.711487,840.980591 
	C159.124054,841.377869 159.536621,841.775146 160.020554,842.614075 
	C160.164154,842.917419 160.403748,843.071411 160.974960,843.603821 
	C161.283340,843.821411 161.591705,844.039001 161.892319,844.114624 
	C161.892319,844.114624 161.761124,844.169617 162.013031,844.773132 
	C163.227676,845.995239 164.442322,847.217285 165.708954,848.279724 
	C165.708954,848.279724 165.558228,848.353760 165.750992,848.861206 
	C166.043427,849.055786 166.335861,849.250366 166.670715,849.259827 
	C166.670715,849.259827 166.548737,849.405396 166.745285,849.900391 
	C167.038742,850.083862 167.332199,850.267395 167.670258,850.271606 
	C167.670258,850.271606 167.545578,850.407898 167.734451,850.898865 
	C168.020004,851.082825 168.305542,851.266724 168.570480,851.116455 
	C168.570480,851.116455 168.545334,851.450317 168.733749,851.930298 
	C169.018723,852.105164 169.303711,852.280090 169.638321,852.061096 
	C169.638321,852.061096 169.546539,852.447388 169.737823,852.930115 
	C170.026382,853.105042 170.314926,853.279968 170.752686,853.140198 
	C170.752686,853.140198 170.551758,853.424744 170.753387,853.918762 
z"/>
<path fill="#2A4D83" opacity="1.000000" stroke="none" 
	d="
M751.026672,899.822205 
	C747.281128,900.218933 743.535645,900.615662 739.047729,900.659302 
	C736.485657,900.206360 734.666016,900.019226 732.846313,900.018982 
	C585.897217,900.000732 438.948059,899.997009 291.702118,899.702271 
	C282.680664,898.608337 273.946411,897.895752 265.233521,896.980103 
	C250.115280,895.391296 235.726089,891.001831 221.686981,885.340210 
	C215.730927,882.938293 209.780594,880.522217 203.827682,878.112488 
	C203.827682,878.112488 203.937943,878.077332 203.821075,877.834045 
	C203.102509,877.410706 202.500793,877.230652 201.899078,877.050659 
	C201.899078,877.050659 201.967621,877.010132 201.936859,876.680359 
	C200.869308,875.947937 199.832520,875.545288 198.795715,875.142700 
	C198.795715,875.142700 198.915451,875.105042 198.813110,874.881470 
	C198.341858,874.561523 197.972946,874.465271 197.604034,874.369019 
	C197.604034,874.368958 197.746964,874.418823 197.708771,874.074707 
	C196.405914,873.177551 195.141266,872.624451 193.876587,872.071289 
	C193.876587,872.071350 193.955307,872.030884 193.931458,871.707397 
	C192.896103,870.947327 191.884613,870.510803 190.873138,870.074280 
	C190.873138,870.074280 190.953629,870.034729 190.928894,869.710938 
	C190.132782,869.100220 189.361420,868.813293 188.590042,868.526367 
	C188.590042,868.526367 188.521881,868.224426 188.576385,868.016602 
	C188.027802,867.577332 187.424713,867.345886 186.821625,867.114441 
	C186.821625,867.114441 186.911667,867.088684 186.901550,866.760437 
	C186.119354,866.152100 185.347275,865.872009 184.575195,865.591919 
	C184.575180,865.591980 184.798370,865.527466 184.709610,865.175049 
	C184.022491,864.586182 183.424133,864.349609 182.825775,864.113037 
	C182.825775,864.113098 182.916733,864.081970 182.909988,863.760559 
	C182.142975,863.078125 181.382706,862.717163 180.622437,862.356140 
	C180.622437,862.356140 180.767563,862.257935 180.716370,862.007080 
	C180.070801,861.515137 179.476425,861.274109 178.882034,861.033081 
	C177.971527,860.323608 177.061020,859.614075 175.939499,858.335571 
	C175.382675,857.555542 175.036865,857.344604 174.691071,857.133667 
	C174.691086,857.133667 174.891281,857.129700 174.797882,856.923950 
	C174.347076,856.555054 173.989670,856.392029 173.632263,856.229004 
	C173.632248,856.229004 173.822754,856.205933 173.775360,855.941406 
	C172.997833,855.255554 172.267715,854.834167 171.537598,854.412842 
	C171.537598,854.412842 171.637344,854.289429 171.650360,854.042114 
	C171.292847,853.671448 170.922302,853.548096 170.551758,853.424744 
	C170.551758,853.424744 170.752686,853.140198 170.703949,852.971191 
	C170.285660,852.683960 169.916092,852.565674 169.546539,852.447388 
	C169.546539,852.447388 169.638321,852.061096 169.645737,851.932068 
	C169.283875,851.685486 168.914597,851.567932 168.545319,851.450317 
	C168.545334,851.450317 168.570480,851.116455 168.612137,850.957520 
	C168.284378,850.668335 167.914978,850.538147 167.545578,850.407898 
	C167.545578,850.407898 167.670258,850.271606 167.664963,850.034302 
	C167.289352,849.666504 166.919037,849.535950 166.548737,849.405396 
	C166.548737,849.405396 166.670715,849.259827 166.666077,849.026367 
	C166.293701,848.646545 165.925964,848.500122 165.558228,848.353760 
	C165.558228,848.353760 165.708954,848.279724 165.708206,847.982788 
	C164.391998,846.513733 163.076553,845.341675 161.761108,844.169678 
	C161.761124,844.169617 161.892319,844.114624 161.812698,843.896606 
	C161.401825,843.477783 161.070572,843.276917 160.739319,843.076050 
	C160.403748,843.071411 160.164154,842.917419 159.973297,842.044800 
	C159.443542,841.134033 158.961029,840.792603 158.478500,840.451172 
	C158.478500,840.451172 158.520493,840.323975 158.591644,840.053345 
	C158.306671,839.608826 157.950562,839.434814 157.594452,839.260803 
	C157.594467,839.260803 157.764969,839.146606 157.728180,838.934998 
	C157.342590,838.514465 156.993805,838.305542 156.644989,838.096680 
	C156.317459,838.091858 156.099838,837.934753 155.962463,837.061768 
	C155.451981,836.121704 154.971176,835.745178 154.490387,835.368652 
	C154.490387,835.368652 154.703583,835.461975 154.730530,835.088745 
	C154.110855,834.180115 153.464249,833.644714 152.817627,833.109314 
	C152.817642,833.109314 152.910187,833.089661 152.912659,832.786011 
	C152.451920,832.085388 151.988693,831.688416 151.525452,831.291443 
	C151.525436,831.291443 151.695709,831.159058 151.698563,830.950195 
	C151.369278,830.522339 151.037140,830.303284 150.705002,830.084290 
	C150.362228,830.069458 150.130188,829.901611 149.964600,829.022949 
	C149.519180,828.009888 149.118042,827.554504 148.716904,827.099182 
	C148.716904,827.099182 148.867935,827.091614 148.884888,826.808350 
	C148.430298,826.134399 147.958771,825.743713 147.487244,825.353027 
	C147.487259,825.353027 147.610016,825.219788 147.654648,824.998352 
	C147.386612,824.552246 147.073959,824.327576 146.761292,824.102966 
	C146.761276,824.102966 146.885574,824.093445 146.918930,823.773010 
	C146.255707,822.659546 145.559113,821.866516 144.862518,821.073486 
	C144.862534,821.073486 144.949860,821.060425 144.932373,820.767334 
	C144.523560,820.012085 144.132217,819.549988 143.740891,819.087830 
	C143.740891,819.087830 143.881607,819.081665 143.917145,818.765869 
	C143.147842,817.396301 142.343018,816.342529 141.538177,815.288696 
	C141.538193,815.288696 141.631332,815.193359 141.755096,814.878357 
	C141.207947,813.732849 140.537033,812.902344 139.866135,812.071838 
	C139.866135,812.071838 139.953217,812.058716 139.933289,811.772888 
	C139.562881,811.004150 139.212402,810.521240 138.861938,810.038330 
	C138.861938,810.038330 138.955704,810.046936 138.931198,809.764648 
	C138.553223,809.002563 138.199753,808.522705 137.846268,808.042847 
	C137.846268,808.042847 137.947342,808.050476 137.930908,807.770386 
	C137.563766,807.006348 137.213043,806.522400 136.862320,806.038513 
	C136.862320,806.038513 136.952820,806.047241 136.959869,805.684631 
	C135.277283,800.552429 133.707977,795.735168 131.848511,791.032776 
	C130.883301,788.591858 129.404984,786.353882 128.158447,784.024231 
	C126.704063,778.385376 125.249680,772.746582 123.888870,766.315796 
	C123.824043,763.325684 123.742447,761.118713 123.492722,758.931030 
	C122.764999,752.555603 121.971970,746.187500 121.200653,739.817078 
	C120.804283,736.543396 120.399620,733.270691 119.995804,729.529053 
	C119.994026,586.656494 119.999001,444.252411 119.961655,301.848328 
	C119.961067,299.591431 119.441017,297.334686 119.163376,295.077850 
	C119.769470,288.983276 120.375572,282.888672 121.448181,276.289246 
	C123.595116,267.473694 125.275543,259.162994 126.955971,250.852310 
	C127.940125,247.141312 128.924271,243.430298 130.379425,239.265289 
	C131.522369,236.475174 132.194305,234.139084 132.866241,231.802994 
	C132.866257,231.802994 132.882004,231.936157 133.181107,231.842041 
	C134.273117,229.430206 135.066040,227.112488 135.858963,224.794785 
	C135.858963,224.794785 135.883423,224.926773 136.172791,224.842972 
	C137.587158,222.096512 138.712158,219.433838 139.837158,216.771164 
	C139.837143,216.771164 139.878326,216.923477 140.121094,216.804626 
	C140.532166,216.055542 140.700455,215.425293 140.868744,214.795044 
	C140.868744,214.795044 140.906815,214.934845 141.144196,214.816162 
	C141.562408,214.083450 141.743256,213.469421 141.924103,212.855408 
	C141.924118,212.855408 141.950943,212.949234 142.178345,212.841217 
	C142.497482,212.365005 142.589218,211.996780 142.680969,211.628571 
	C142.680954,211.628571 142.671204,211.818726 142.954971,211.724915 
	C143.397049,210.983963 143.555359,210.336838 143.713684,209.689713 
	C143.713684,209.689713 143.764496,209.856934 144.024658,209.765594 
	C144.475616,209.046021 144.666428,208.417770 144.857224,207.789520 
	C144.857224,207.789520 144.894409,207.918625 145.117157,207.820648 
	C145.459244,207.355560 145.578598,206.988480 145.697968,206.621384 
	C145.697968,206.621384 145.676529,206.819702 145.953918,206.729828 
	C146.421661,206.006973 146.612045,205.373978 146.802414,204.740997 
	C146.802414,204.740997 146.823395,204.868240 146.970184,204.841400 
	C147.240906,204.762207 147.364822,204.709839 147.488754,204.657486 
	C147.358261,204.446671 147.227768,204.235870 147.097275,204.025055 
	C161.184998,181.205307 180.344818,163.677826 203.843384,150.336975 
	C205.132385,149.872192 205.902954,149.206970 206.673538,148.541748 
	C206.673538,148.541748 206.796295,148.662033 207.009857,148.694275 
	C207.469864,148.449371 207.716324,148.172226 207.962799,147.895081 
	C207.962799,147.895081 207.961014,147.974472 208.317535,147.971207 
	C209.760590,147.269485 210.847122,146.571014 211.933640,145.872559 
	C211.933640,145.872559 211.945816,145.958801 212.231995,145.937653 
	C212.999237,145.566559 213.480301,145.216644 213.961380,144.866714 
	C213.961380,144.866714 213.952484,144.953751 214.310654,144.961121 
	C217.425278,143.587784 220.181732,142.207092 222.938187,140.826401 
	C222.938187,140.826401 222.939850,140.929214 223.307068,140.944275 
	C230.770630,138.685013 237.866974,136.410675 244.963333,134.136353 
	C252.329208,132.753555 259.675629,131.253891 267.066589,130.021713 
	C274.080078,128.852478 281.140259,127.963333 288.910645,127.324081 
	C291.628296,127.798088 293.615204,127.987251 295.602112,127.987411 
	C440.732117,127.999374 585.862122,127.996361 731.414429,128.018555 
	C733.959351,128.362000 736.076477,128.914185 738.205383,128.963974 
	C755.203918,129.361511 771.755371,132.398499 788.040100,137.131927 
	C793.727539,138.785095 799.450806,140.315216 805.157715,141.901520 
	C805.157715,141.901520 805.058350,141.929352 805.156128,142.223083 
	C807.940552,143.545181 810.627136,144.573532 813.313721,145.601898 
	C813.313721,145.601898 813.222839,145.538727 813.267944,145.906189 
	C816.611023,147.799469 819.908997,149.325287 823.206909,150.851105 
	C823.206909,150.851105 823.077698,150.890762 823.190918,151.133621 
	C823.911621,151.561127 824.519104,151.745773 825.126587,151.930420 
	C825.126587,151.930420 825.048706,151.968613 825.071533,152.298645 
	C826.135681,153.032043 827.176941,153.435410 828.218262,153.838776 
	C828.218262,153.838776 828.095093,153.878662 828.194580,154.103470 
	C828.663025,154.431763 829.031982,154.535233 829.400879,154.638702 
	C829.400879,154.638702 829.357849,154.530380 829.305420,154.912201 
	C830.536133,155.843994 831.819275,156.393951 833.102356,156.943909 
	C833.102356,156.943909 833.032043,156.987656 833.059998,157.309143 
	C834.084534,158.073730 835.081116,158.516830 836.077698,158.959930 
	C836.077698,158.959930 836.019714,158.998734 836.138245,159.213379 
	C836.581604,159.585068 836.906372,159.742126 837.231201,159.899200 
	C837.231201,159.899200 837.103577,159.902908 837.089966,160.152252 
	C837.715149,160.608032 838.354065,160.814468 838.992920,161.020920 
	C842.925171,164.129196 846.857361,167.237473 850.758179,170.810913 
	C851.210388,171.501389 851.694153,171.726685 852.177856,171.951981 
	C852.518005,171.922577 852.777039,172.053604 853.103699,172.839157 
	C853.569031,173.537628 853.885620,173.742020 854.202209,173.946411 
	C854.202209,173.946426 854.044739,173.951111 854.142456,174.150604 
	C854.563477,174.544281 854.886780,174.738480 855.210144,174.932678 
	C855.210144,174.932678 855.050476,174.955048 855.154053,175.154846 
	C855.595459,175.546783 855.933289,175.738937 856.271057,175.931076 
	C856.591003,175.900635 856.832397,176.023956 857.124573,176.794785 
	C857.572021,177.507874 857.890076,177.727188 858.208191,177.946503 
	C858.208191,177.946503 858.046082,177.951233 858.143066,178.147827 
	C858.559326,178.542480 858.878601,178.740555 859.197876,178.938629 
	C859.197876,178.938644 859.046143,178.958496 859.148193,179.155487 
	C859.574036,179.549576 859.897888,179.746658 860.221741,179.943741 
	C860.557617,179.926559 860.807129,180.065018 861.114746,180.837570 
	C861.550476,181.533569 861.841675,181.751114 862.132935,181.968628 
	C868.366394,190.092957 874.599854,198.217270 880.634521,206.868103 
	C881.326904,208.578033 882.218079,209.761429 883.109253,210.944794 
	C883.109253,210.944794 883.026428,210.955948 883.056519,211.248260 
	C883.465210,212.004028 883.843872,212.467499 884.222534,212.930969 
	C884.222534,212.930954 884.090332,212.931473 884.088867,213.210388 
	C884.480957,213.963547 884.874512,214.437790 885.268066,214.912033 
	C885.268005,214.912048 885.120728,214.919830 885.086609,215.240601 
	C886.767456,218.683868 888.482483,221.806396 890.197449,224.928925 
	C890.197449,224.928925 890.084778,224.937119 890.061646,225.280518 
	C891.090210,227.726791 892.141968,229.829666 893.193726,231.932556 
	C893.193726,231.932556 893.080872,231.940964 893.062866,232.303391 
	C894.898254,237.417511 896.751648,242.169189 898.605103,246.920868 
	C900.074341,253.953995 901.543640,260.987122 903.003662,268.892944 
	C904.004944,279.853485 905.015320,289.941406 906.022095,300.492249 
	C906.023621,442.628601 906.028748,584.302002 905.861328,726.358276 
	C905.460510,728.194946 905.213684,729.646179 905.006836,731.103027 
	C902.834900,746.401611 900.842346,761.728699 898.413940,776.986389 
	C897.489441,782.794861 895.568237,788.444641 894.101318,794.166748 
	C894.101318,794.166748 894.081177,794.053467 893.785400,794.149292 
	C892.358521,797.216431 891.227356,800.187744 890.096191,803.158997 
	C890.096191,803.158997 890.066833,803.033203 889.811646,803.195129 
	C889.388916,804.275269 889.221436,805.193542 889.053894,806.111755 
	C889.053894,806.111755 889.029236,806.036194 888.775024,806.169006 
	C888.375183,806.919373 888.229492,807.536926 888.083862,808.154480 
	C888.083862,808.154480 888.053406,808.047058 887.809448,808.173950 
	C887.402466,808.915344 887.239502,809.529907 887.076538,810.144470 
	C887.076538,810.144470 887.047791,810.043457 886.803101,810.172119 
	C886.396423,810.913574 886.234436,811.526428 886.072449,812.139221 
	C886.072449,812.139221 886.046509,812.048889 885.820496,812.157715 
	C885.504211,812.631958 885.413940,812.997253 885.323730,813.362549 
	C885.323669,813.362549 885.368103,813.185791 885.066650,813.279175 
	C884.628723,814.023682 884.492310,814.674744 884.355957,815.325806 
	C884.355957,815.325806 884.332031,815.184570 884.003296,815.243469 
	C883.170349,816.609375 882.666016,817.916382 882.161743,819.223389 
	C882.161743,819.223389 882.119507,819.079285 881.878174,819.187622 
	C881.446838,819.906738 881.256714,820.517456 881.066589,821.128174 
	C881.066589,821.128174 881.036499,821.049072 880.707031,821.068054 
	C879.959473,822.121826 879.541504,823.156616 879.123535,824.191467 
	C879.123535,824.191467 879.088013,824.071777 878.864929,824.173096 
	C878.514587,824.639954 878.387329,825.005554 878.260071,825.371094 
	C878.260071,825.371094 878.257080,825.156433 878.006348,825.248718 
	C877.546387,825.959778 877.337219,826.578552 877.128052,827.197388 
	C877.128052,827.197388 877.105408,827.097107 876.779053,827.099121 
	C876.004517,828.125305 875.556458,829.149536 875.108398,830.173767 
	C875.108398,830.173767 875.084534,830.084290 874.757874,830.089783 
	C873.967041,831.111572 873.502869,832.127869 873.038696,833.144165 
	C873.082886,833.458191 872.991699,833.726196 872.257446,834.112122 
	C871.560913,834.630981 871.372070,834.985962 871.183228,835.341003 
	C871.183289,835.341003 871.300354,835.183105 871.144287,835.213013 
	C870.850769,835.275635 870.713379,835.308411 870.575989,835.341187 
	C870.711365,835.559937 870.846741,835.778809 870.982056,835.997681 
	C858.841492,852.205078 843.833618,865.221985 826.144470,875.637146 
	C824.875977,876.124512 824.123413,876.804138 823.370850,877.483765 
	C823.370911,877.483826 823.233521,877.394043 823.005127,877.337891 
	C822.534668,877.567871 822.292603,877.854065 822.050537,878.140259 
	C822.050537,878.140259 822.054504,878.050598 821.765320,878.068115 
	C821.007324,878.465271 820.538513,878.844849 820.069763,879.224487 
	C820.069763,879.224487 820.069641,879.094543 819.743958,879.070496 
	C816.980103,880.448242 814.541931,881.850037 812.103699,883.251770 
	C812.103699,883.251770 812.087830,883.119812 811.810913,883.109253 
	C811.045410,883.472473 810.556702,883.846130 810.068054,884.219849 
	C810.068054,884.219849 810.066467,884.090271 809.794800,884.094421 
	C809.029907,884.449951 808.536682,884.801331 808.043457,885.152710 
	C808.043518,885.152771 808.050842,885.054565 807.691162,885.045776 
	C804.246033,886.428711 801.160522,887.820312 798.075012,889.211975 
	C798.075012,889.211975 798.063660,889.093140 797.737488,889.076904 
	C796.639160,889.512878 795.867004,889.965088 795.094849,890.417358 
	C791.633972,891.599426 788.173096,892.781555 784.096924,893.655701 
	C782.841187,893.250427 782.166077,892.970154 781.565369,893.083557 
	C774.158386,894.481567 766.747314,895.866028 759.370911,897.414062 
	C756.545532,898.007019 753.805542,899.007446 751.026672,899.822205 
M785.002014,424.500000 
	C785.001953,419.500427 785.133484,414.496796 784.978394,409.502045 
	C784.396790,390.774811 779.810547,373.338654 768.157043,358.228027 
	C758.415283,345.596161 746.123535,338.936371 729.629333,339.019714 
	C663.302429,339.354828 596.972900,339.158386 530.644348,339.158386 
	C528.724609,339.158386 526.804810,339.158386 524.448975,339.158386 
	C524.448975,494.930847 524.448975,650.001160 524.448975,805.278015 
	C538.895325,805.278015 553.318726,805.278015 568.241821,805.278015 
	C568.241821,758.094666 568.241821,711.180298 568.241821,663.840088 
	C570.538757,663.840088 572.338562,663.831299 574.138245,663.841492 
	C592.962952,663.947876 611.787598,664.122925 630.612427,664.151489 
	C664.276611,664.202576 697.942627,663.967651 731.604309,664.262207 
	C745.317261,664.382202 756.118164,659.049805 764.950989,649.079834 
	C779.249329,632.940674 784.893433,613.589233 784.950806,592.487793 
	C785.102051,536.825500 785.002014,481.162628 785.002014,424.500000 
M254.804428,622.675842 
	C257.743683,628.802185 260.127411,635.278870 263.728333,640.987854 
	C273.775970,656.917603 287.834839,664.902100 307.408752,664.747742 
	C373.048309,664.230225 438.694458,664.551270 504.338104,664.551270 
	C506.268494,664.551270 508.198853,664.551270 510.468140,664.551270 
	C510.468140,531.846497 510.468140,399.858276 510.468140,267.737396 
	C495.834808,267.737396 481.577362,267.737396 466.813110,267.737396 
	C466.813110,291.754089 466.813110,315.490295 466.813110,339.448730 
	C445.668671,339.448730 425.031982,339.448730 404.395294,339.448730 
	C370.907043,339.448730 337.416656,339.669342 303.931549,339.344879 
	C289.667450,339.206696 278.468811,344.669525 269.392242,355.213806 
	C255.835724,370.962494 250.110275,389.616333 250.055481,410.025940 
	C249.892639,470.670898 249.793442,531.317932 250.199402,591.960632 
	C250.266357,601.961731 253.005402,611.945068 254.804428,622.675842 
z"/>
<path fill="#001859" opacity="1.000000" stroke="none" 
	d="
M291.998932,899.992249 
	C438.948059,899.997009 585.897217,900.000732 732.846313,900.018982 
	C734.666016,900.019226 736.485657,900.206360 738.612976,900.574707 
	C730.590088,900.894958 722.259583,900.991638 713.929077,900.991882 
	C573.601135,900.995789 433.273224,900.987732 292.472870,900.702393 
	C292.000458,900.422546 291.998932,899.992249 291.998932,899.992249 
z"/>
<path fill="#001053" opacity="1.000000" stroke="none" 
	d="
M730.992126,127.994537 
	C585.862122,127.996361 440.732117,127.999374 295.602112,127.987411 
	C293.615204,127.987251 291.628296,127.798088 289.346375,127.408569 
	C315.186981,127.079140 341.322571,127.004639 367.458191,127.003151 
	C488.323456,126.996277 609.188721,127.009697 730.531006,127.289902 
	C731.008118,127.563950 730.992126,127.994530 730.992126,127.994537 
z"/>
<path fill="#000F54" opacity="1.000000" stroke="none" 
	d="
M119.107140,295.538147 
	C119.441017,297.334686 119.961067,299.591431 119.961655,301.848328 
	C119.999001,444.252411 119.994026,586.656494 119.783150,729.527466 
	C119.573402,729.994324 119.148720,729.970825 119.148727,729.970825 
	C119.096725,687.308777 119.003494,644.646729 119.000946,601.984680 
	C118.994858,499.989288 119.031509,397.993866 119.107140,295.538147 
z"/>
<path fill="#001256" opacity="1.000000" stroke="none" 
	d="
M906.033875,725.975403 
	C906.028748,584.302002 906.023621,442.628601 906.229065,300.482239 
	C906.439636,300.009308 906.854309,300.022980 906.854309,300.022980 
	C906.903687,340.144135 906.989624,380.265320 906.995361,420.386475 
	C907.009827,521.945129 906.988220,623.503723 906.710938,725.525574 
	C906.440735,725.988770 906.033875,725.975403 906.033875,725.975403 
z"/>
<path fill="#153572" opacity="1.000000" stroke="none" 
	d="
M291.702118,899.702271 
	C291.998932,899.992249 292.000458,900.422546 292.009369,900.637451 
	C261.061310,900.165588 231.544083,893.779053 204.028091,878.394531 
	C209.780594,880.522217 215.730927,882.938293 221.686981,885.340210 
	C235.726089,891.001831 250.115280,895.391296 265.233521,896.980103 
	C273.946411,897.895752 282.680664,898.608337 291.702118,899.702271 
z"/>
<path fill="#163672" opacity="1.000000" stroke="none" 
	d="
M731.414429,128.018555 
	C730.992126,127.994530 731.008118,127.563950 730.995300,127.348892 
	C756.432556,127.298553 781.038757,131.834763 804.919800,141.630920 
	C799.450806,140.315216 793.727539,138.785095 788.040100,137.131927 
	C771.755371,132.398499 755.203918,129.361511 738.205383,128.963974 
	C736.076477,128.914185 733.959351,128.362000 731.414429,128.018555 
z"/>
<path fill="#10306E" opacity="1.000000" stroke="none" 
	d="
M905.861328,726.358276 
	C906.033875,725.975403 906.440735,725.988770 906.644287,725.985046 
	C906.381592,749.198364 902.839050,771.861267 894.376953,793.927246 
	C895.568237,788.444641 897.489441,782.794861 898.413940,776.986389 
	C900.842346,761.728699 902.834900,746.401611 905.006836,731.103027 
	C905.213684,729.646179 905.460510,728.194946 905.861328,726.358276 
z"/>
<path fill="#1A3974" opacity="1.000000" stroke="none" 
	d="
M119.066940,730.421143 
	C119.148720,729.970825 119.573402,729.994324 119.786057,729.995972 
	C120.399620,733.270691 120.804283,736.543396 121.200653,739.817078 
	C121.971970,746.187500 122.764999,752.555603 123.492722,758.931030 
	C123.742447,761.118713 123.824043,763.325684 123.943184,765.920654 
	C122.623474,759.610413 121.117561,752.936096 120.136635,746.185486 
	C119.402283,741.131714 119.344307,735.979675 119.066940,730.421143 
z"/>
<path fill="#143471" opacity="1.000000" stroke="none" 
	d="
M751.455017,899.895020 
	C753.805542,899.007446 756.545532,898.007019 759.370911,897.414062 
	C766.747314,895.866028 774.158386,894.481567 781.565369,893.083557 
	C782.166077,892.970154 782.841187,893.250427 783.725830,893.627075 
	C773.274475,895.926941 762.578918,897.947449 751.455017,899.895020 
z"/>
<path fill="#163672" opacity="1.000000" stroke="none" 
	d="
M906.938538,299.564728 
	C906.854309,300.022980 906.439636,300.009308 906.232666,300.019287 
	C905.015320,289.941406 904.004944,279.853485 903.018799,269.312378 
	C903.971436,272.968994 905.241699,277.037354 905.746460,281.198578 
	C906.466187,287.132172 906.624573,293.133881 906.938538,299.564728 
z"/>
<path fill="#143471" opacity="1.000000" stroke="none" 
	d="
M126.612282,251.010712 
	C125.275543,259.162994 123.595116,267.473694 121.546356,275.879089 
	C122.874886,267.705566 124.571739,259.437317 126.612282,251.010712 
z"/>
<path fill="#143471" opacity="1.000000" stroke="none" 
	d="
M128.086121,784.401001 
	C129.404984,786.353882 130.883301,788.591858 131.848511,791.032776 
	C133.707977,795.735168 135.277283,800.552429 136.945511,805.727783 
	C133.953995,799.014893 130.983871,791.896362 128.086121,784.401001 
z"/>
<path fill="#153572" opacity="1.000000" stroke="none" 
	d="
M244.562195,134.029694 
	C237.866974,136.410675 230.770630,138.685013 223.257492,140.930634 
	C229.947495,138.575623 237.054260,136.249329 244.562195,134.029694 
z"/>
<path fill="#12316E" opacity="1.000000" stroke="none" 
	d="
M898.478027,246.536499 
	C896.751648,242.169189 894.898254,237.417511 893.074219,232.247986 
	C894.852844,236.604141 896.601929,241.378128 898.478027,246.536499 
z"/>
<path fill="#163672" opacity="1.000000" stroke="none" 
	d="
M823.013977,150.562805 
	C819.908997,149.325287 816.611023,147.799469 813.322632,145.897705 
	C816.495178,147.105988 819.658081,148.690231 823.013977,150.562805 
z"/>
<path fill="#12316E" opacity="1.000000" stroke="none" 
	d="
M890.138733,224.563141 
	C888.482483,221.806396 886.767456,218.683868 885.105286,215.169250 
	C886.798706,217.917221 888.439331,221.057281 890.138733,224.563141 
z"/>
<path fill="#143471" opacity="1.000000" stroke="none" 
	d="
M798.452209,889.168335 
	C801.160522,887.820312 804.246033,886.428711 807.738037,885.060852 
	C805.039551,886.431335 801.934448,887.777954 798.452209,889.168335 
z"/>
<path fill="#153572" opacity="1.000000" stroke="none" 
	d="
M222.571335,140.872803 
	C220.181732,142.207092 217.425278,143.587784 214.269318,144.946747 
	C216.648041,143.589767 219.426254,142.254501 222.571335,140.872803 
z"/>
<path fill="#10306E" opacity="1.000000" stroke="none" 
	d="
M890.411499,802.993408 
	C891.227356,800.187744 892.358521,797.216431 893.842773,794.154419 
	C893.039429,796.984985 891.883057,799.906372 890.411499,802.993408 
z"/>
<path fill="#143471" opacity="1.000000" stroke="none" 
	d="
M812.461792,883.184265 
	C814.541931,881.850037 816.980103,880.448242 819.806335,879.088623 
	C817.736206,880.459473 815.278015,881.788147 812.461792,883.184265 
z"/>
<path fill="#163672" opacity="1.000000" stroke="none" 
	d="
M813.090942,145.346329 
	C810.627136,144.573532 807.940552,143.545181 805.156555,142.171509 
	C807.662109,142.914398 810.265137,144.002579 813.090942,145.346329 
z"/>
<path fill="#10306E" opacity="1.000000" stroke="none" 
	d="
M139.552368,216.970123 
	C138.712158,219.433838 137.587158,222.096512 136.106277,224.834015 
	C136.922775,222.328918 138.095169,219.748993 139.552368,216.970123 
z"/>
<path fill="#10306E" opacity="1.000000" stroke="none" 
	d="
M132.586517,232.031738 
	C132.194305,234.139084 131.522369,236.475174 130.502380,238.889893 
	C130.871826,236.732483 131.589294,234.496490 132.586517,232.031738 
z"/>
<path fill="#12316E" opacity="1.000000" stroke="none" 
	d="
M893.147827,231.570374 
	C892.141968,229.829666 891.090210,227.726791 890.074036,225.225388 
	C891.107056,226.953979 892.104492,229.081100 893.147827,231.570374 
z"/>
<path fill="#10306E" opacity="1.000000" stroke="none" 
	d="
M135.574570,225.008362 
	C135.066040,227.112488 134.273117,229.430206 133.115173,231.829895 
	C133.596817,229.681900 134.443497,227.451935 135.574570,225.008362 
z"/>
<path fill="#153572" opacity="1.000000" stroke="none" 
	d="
M161.887054,844.471436 
	C163.076553,845.341675 164.391998,846.513733 165.682220,848.062622 
	C164.442322,847.217285 163.227676,845.995239 161.887054,844.471436 
z"/>
<path fill="#12316E" opacity="1.000000" stroke="none" 
	d="
M883.046631,210.625580 
	C882.218079,209.761429 881.326904,208.578033 880.690552,207.209198 
	C881.624939,208.117950 882.304443,209.212143 883.046631,210.625580 
z"/>
<path fill="#163672" opacity="1.000000" stroke="none" 
	d="
M832.913818,156.684555 
	C831.819275,156.393951 830.536133,155.843994 829.362915,154.902771 
	C830.556946,155.149414 831.641113,155.787323 832.913818,156.684555 
z"/>
<path fill="#153572" opacity="1.000000" stroke="none" 
	d="
M211.605591,145.927063 
	C210.847122,146.571014 209.760590,147.269485 208.281738,147.954010 
	C209.018799,147.287247 210.148178,146.634415 211.605591,145.927063 
z"/>
<path fill="#143471" opacity="1.000000" stroke="none" 
	d="
M141.639435,815.604980 
	C142.343018,816.342529 143.147842,817.396301 143.897736,818.833618 
	C143.142105,818.118530 142.441406,817.019897 141.639435,815.604980 
z"/>
<path fill="#10306E" opacity="1.000000" stroke="none" 
	d="
M882.443970,819.042542 
	C882.666016,817.916382 883.170349,816.609375 884.062988,815.283142 
	C883.876282,816.463196 883.301270,817.662415 882.443970,819.042542 
z"/>
<path fill="#153572" opacity="1.000000" stroke="none" 
	d="
M194.059647,872.342529 
	C195.141266,872.624451 196.405914,873.177551 197.645935,874.116943 
	C196.495087,873.873413 195.368896,873.243591 194.059647,872.342529 
z"/>
<path fill="#143471" opacity="1.000000" stroke="none" 
	d="
M144.933777,821.383911 
	C145.559113,821.866516 146.255707,822.659546 146.900604,823.832581 
	C146.234299,823.373169 145.619675,822.533813 144.933777,821.383911 
z"/>
<path fill="#143471" opacity="1.000000" stroke="none" 
	d="
M139.921356,812.385864 
	C140.537033,812.902344 141.207947,813.732849 141.757751,814.944946 
	C141.083298,814.450989 140.529938,813.575500 139.921356,812.385864 
z"/>
<path fill="#10306E" opacity="1.000000" stroke="none" 
	d="
M875.381042,830.011475 
	C875.556458,829.149536 876.004517,828.125305 876.829224,827.110352 
	C876.688416,828.029419 876.171082,828.939331 875.381042,830.011475 
z"/>
<path fill="#10306E" opacity="1.000000" stroke="none" 
	d="
M873.297729,832.962830 
	C873.502869,832.127869 873.967041,831.111572 874.803711,830.096558 
	C874.636353,830.992432 874.096558,831.886963 873.297729,832.962830 
z"/>
<path fill="#153572" opacity="1.000000" stroke="none" 
	d="
M191.041779,870.340210 
	C191.884613,870.510803 192.896103,870.947327 193.922913,871.750793 
	C193.028961,871.613892 192.119690,871.109985 191.041779,870.340210 
z"/>
<path fill="#153572" opacity="1.000000" stroke="none" 
	d="
M198.961853,875.415283 
	C199.832520,875.545288 200.869308,875.947937 201.931152,876.719727 
	C201.013474,876.621887 200.070740,876.154907 198.961853,875.415283 
z"/>
<path fill="#163672" opacity="1.000000" stroke="none" 
	d="
M828.053833,153.564697 
	C827.176941,153.435410 826.135681,153.032043 825.077820,152.255737 
	C826.004028,152.352081 826.946716,152.821365 828.053833,153.564697 
z"/>
<path fill="#143471" opacity="1.000000" stroke="none" 
	d="
M823.655640,877.377197 
	C824.123413,876.804138 824.875977,876.124512 825.804932,875.699585 
	C825.301025,876.393066 824.620728,876.831787 823.655640,877.377197 
z"/>
<path fill="#153572" opacity="1.000000" stroke="none" 
	d="
M206.382278,148.640289 
	C205.902954,149.206970 205.132385,149.872192 204.186554,150.282776 
	C204.704514,149.598343 205.397766,149.168579 206.382278,148.640289 
z"/>
<path fill="#163672" opacity="1.000000" stroke="none" 
	d="
M835.885986,158.715149 
	C835.081116,158.516830 834.084534,158.073730 833.067749,157.268463 
	C833.929810,157.427658 834.812012,157.949020 835.885986,158.715149 
z"/>
<path fill="#10306E" opacity="1.000000" stroke="none" 
	d="
M879.397827,824.027954 
	C879.541504,823.156616 879.959473,822.121826 880.749023,821.073486 
	C880.637695,821.994751 880.154907,822.929626 879.397827,824.027954 
z"/>
<path fill="#163672" opacity="1.000000" stroke="none" 
	d="
M838.795410,160.816940 
	C838.354065,160.814468 837.715149,160.608032 837.110107,160.091675 
	C837.628601,160.058838 838.113220,160.335892 838.795410,160.816940 
z"/>
<path fill="#153572" opacity="1.000000" stroke="none" 
	d="
M180.775726,862.612061 
	C181.382706,862.717163 182.142975,863.078125 182.899292,863.807373 
	C182.239899,863.739807 181.584457,863.303894 180.775726,862.612061 
z"/>
<path fill="#153572" opacity="1.000000" stroke="none" 
	d="
M184.758118,865.809387 
	C185.347275,865.872009 186.119354,866.152100 186.892914,866.806458 
	C186.243271,866.796082 185.592163,866.411438 184.758118,865.809387 
z"/>
<path fill="#153572" opacity="1.000000" stroke="none" 
	d="
M188.776123,868.745361 
	C189.361420,868.813293 190.132782,869.100220 190.919540,869.754822 
	C190.277359,869.736389 189.619781,869.350403 188.776123,868.745361 
z"/>
<path fill="#143471" opacity="1.000000" stroke="none" 
	d="
M152.906128,833.388428 
	C153.464249,833.644714 154.110855,834.180115 154.615479,835.071289 
	C153.980530,834.840637 153.487564,834.254028 152.906128,833.388428 
z"/>
<path fill="#153572" opacity="1.000000" stroke="none" 
	d="
M171.680084,854.682190 
	C172.267715,854.834167 172.997833,855.255554 173.744995,856.032349 
	C173.115555,855.909119 172.469055,855.430359 171.680084,854.682190 
z"/>
<path fill="#10306E" opacity="1.000000" stroke="none" 
	d="
M889.297852,805.874695 
	C889.221436,805.193542 889.388916,804.275269 889.876099,803.191895 
	C889.977844,803.897095 889.759766,804.767334 889.297852,805.874695 
z"/>
<path fill="#143471" opacity="1.000000" stroke="none" 
	d="
M795.427795,890.327881 
	C795.867004,889.965088 796.639160,889.512878 797.796021,889.088867 
	C797.374023,889.490784 796.567383,889.864624 795.427795,890.327881 
z"/>
<path fill="#143471" opacity="1.000000" stroke="none" 
	d="
M147.588409,825.635132 
	C147.958771,825.743713 148.430298,826.134399 148.863586,826.880859 
	C148.446747,826.796814 148.068176,826.356995 147.588409,825.635132 
z"/>
<path fill="#153572" opacity="1.000000" stroke="none" 
	d="
M179.048553,861.284180 
	C179.476425,861.274109 180.070801,861.515137 180.714447,862.094666 
	C180.247498,862.133850 179.731277,861.834534 179.048553,861.284180 
z"/>
<path fill="#10306E" opacity="1.000000" stroke="none" 
	d="
M877.393799,827.042358 
	C877.337219,826.578552 877.546387,825.959778 878.105591,825.289673 
	C878.190247,825.787964 877.924927,826.337708 877.393799,827.042358 
z"/>
<path fill="#143471" opacity="1.000000" stroke="none" 
	d="
M148.801239,827.395996 
	C149.118042,827.554504 149.519180,828.009888 149.942123,828.797852 
	C149.604477,828.651306 149.245026,828.172058 148.801239,827.395996 
z"/>
<path fill="#143471" opacity="1.000000" stroke="none" 
	d="
M820.371887,879.160828 
	C820.538513,878.844849 821.007324,878.465271 821.808105,878.081482 
	C821.651428,878.417297 821.162720,878.757263 820.371887,879.160828 
z"/>
<path fill="#12316E" opacity="1.000000" stroke="none" 
	d="
M884.156982,212.630951 
	C883.843872,212.467499 883.465210,212.004028 883.073364,211.210052 
	C883.403992,211.363342 883.747681,211.847122 884.156982,212.630951 
z"/>
<path fill="#143471" opacity="1.000000" stroke="none" 
	d="
M151.622452,831.577515 
	C151.988693,831.688416 152.451920,832.085388 152.899796,832.831543 
	C152.496124,832.741699 152.107788,832.302673 151.622452,831.577515 
z"/>
<path fill="#143471" opacity="1.000000" stroke="none" 
	d="
M154.596924,835.650024 
	C154.971176,835.745178 155.451981,836.121704 155.936646,836.850159 
	C155.528152,836.778503 155.115814,836.354980 154.596924,835.650024 
z"/>
<path fill="#153572" opacity="1.000000" stroke="none" 
	d="
M202.089264,877.286316 
	C202.500793,877.230652 203.102509,877.410706 203.823273,877.891846 
	C203.388046,877.969299 202.833740,877.745667 202.089264,877.286316 
z"/>
<path fill="#10306E" opacity="1.000000" stroke="none" 
	d="
M146.535675,204.893005 
	C146.612045,205.373978 146.421661,206.006973 145.870819,206.674652 
	C145.763214,206.154587 146.016083,205.599808 146.535675,204.893005 
z"/>
<path fill="#143471" opacity="1.000000" stroke="none" 
	d="
M158.595001,840.715881 
	C158.961029,840.792603 159.443542,841.134033 159.937622,841.823914 
	C159.536621,841.775146 159.124054,841.377869 158.595001,840.715881 
z"/>
<path fill="#10306E" opacity="1.000000" stroke="none" 
	d="
M143.458435,209.857544 
	C143.555359,210.336838 143.397049,210.983963 142.874893,211.673401 
	C142.741760,211.152283 142.972458,210.588837 143.458435,209.857544 
z"/>
<path fill="#10306E" opacity="1.000000" stroke="none" 
	d="
M144.585175,207.944672 
	C144.666428,208.417770 144.475616,209.046021 143.938950,209.748505 
	C143.833115,209.248444 144.073120,208.674149 144.585175,207.944672 
z"/>
<path fill="#153572" opacity="1.000000" stroke="none" 
	d="
M186.965271,867.373169 
	C187.424713,867.345886 188.027802,867.577332 188.629608,868.161926 
	C188.121872,868.220642 187.615402,867.926270 186.965271,867.373169 
z"/>
<path fill="#153572" opacity="1.000000" stroke="none" 
	d="
M182.965652,864.367188 
	C183.424133,864.349609 184.022491,864.586182 184.593445,865.175781 
	C184.079208,865.226318 183.592361,864.923828 182.965652,864.367188 
z"/>
<path fill="#10306E" opacity="1.000000" stroke="none" 
	d="
M884.600403,815.152100 
	C884.492310,814.674744 884.628723,814.023682 885.133911,813.340698 
	C885.283386,813.865295 885.064148,814.421814 884.600403,815.152100 
z"/>
<path fill="#143471" opacity="1.000000" stroke="none" 
	d="
M137.897766,808.344788 
	C138.199753,808.522705 138.553223,809.002563 138.917175,809.809631 
	C138.601501,809.640137 138.275375,809.143433 137.897766,808.344788 
z"/>
<path fill="#163672" opacity="1.000000" stroke="none" 
	d="
M824.942017,151.687042 
	C824.519104,151.745773 823.911621,151.561127 823.191956,151.066055 
	C823.638977,150.984985 824.198181,151.214325 824.942017,151.687042 
z"/>
<path fill="#10306E" opacity="1.000000" stroke="none" 
	d="
M887.327332,809.962036 
	C887.239502,809.529907 887.402466,808.915344 887.865112,808.169678 
	C887.969238,808.618896 887.773682,809.199219 887.327332,809.962036 
z"/>
<path fill="#143471" opacity="1.000000" stroke="none" 
	d="
M138.904541,810.343750 
	C139.212402,810.521240 139.562881,811.004150 139.917603,811.814026 
	C139.596954,811.643738 139.272049,811.146423 138.904541,810.343750 
z"/>
<path fill="#143471" opacity="1.000000" stroke="none" 
	d="
M810.379639,884.171875 
	C810.556702,883.846130 811.045410,883.472473 811.875610,883.124634 
	C811.708496,883.474976 811.199829,883.799438 810.379639,884.171875 
z"/>
<path fill="#10306E" opacity="1.000000" stroke="none" 
	d="
M886.321350,811.955627 
	C886.234436,811.526428 886.396423,810.913574 886.855469,810.167603 
	C886.958435,810.613647 886.764343,811.192810 886.321350,811.955627 
z"/>
<path fill="#0A2C6C" opacity="1.000000" stroke="none" 
	d="
M852.053345,171.725311 
	C851.694153,171.726685 851.210388,171.501389 850.903564,171.115524 
	C851.363220,171.136200 851.645996,171.317429 852.053345,171.725311 
z"/>
<path fill="#10306E" opacity="1.000000" stroke="none" 
	d="
M888.332642,807.968384 
	C888.229492,807.536926 888.375183,806.919373 888.814453,806.163452 
	C888.932495,806.610840 888.757019,807.196533 888.332642,807.968384 
z"/>
<path fill="#10306E" opacity="1.000000" stroke="none" 
	d="
M140.603485,214.967117 
	C140.700455,215.425293 140.532166,216.055542 140.042236,216.802887 
	C139.926468,216.326385 140.132339,215.732788 140.603485,214.967117 
z"/>
<path fill="#12316E" opacity="1.000000" stroke="none" 
	d="
M885.201172,214.604919 
	C884.874512,214.437790 884.480957,213.963547 884.106323,213.146637 
	C884.461487,213.301910 884.797852,213.799866 885.201172,214.604919 
z"/>
<path fill="#153572" opacity="1.000000" stroke="none" 
	d="
M213.658203,144.911774 
	C213.480301,145.216644 212.999237,145.566559 212.191681,145.921158 
	C212.361816,145.602829 212.858429,145.279831 213.658203,144.911774 
z"/>
<path fill="#143471" opacity="1.000000" stroke="none" 
	d="
M143.812683,819.388855 
	C144.132217,819.549988 144.523560,820.012085 144.917191,820.808838 
	C144.574493,820.658875 144.229492,820.174377 143.812683,819.388855 
z"/>
<path fill="#10306E" opacity="1.000000" stroke="none" 
	d="
M881.320679,820.953247 
	C881.256714,820.517456 881.446838,819.906738 881.953247,819.188843 
	C882.038025,819.647217 881.806335,820.212769 881.320679,820.953247 
z"/>
<path fill="#10306E" opacity="1.000000" stroke="none" 
	d="
M141.671600,213.035583 
	C141.743256,213.469421 141.562408,214.083450 141.071762,214.817474 
	C140.981018,214.363571 141.200058,213.789658 141.671600,213.035583 
z"/>
<path fill="#143471" opacity="1.000000" stroke="none" 
	d="
M808.353333,885.110352 
	C808.536682,884.801331 809.029907,884.449951 809.857422,884.111206 
	C809.682190,884.438477 809.172729,884.753174 808.353333,885.110352 
z"/>
<path fill="#143471" opacity="1.000000" stroke="none" 
	d="
M136.905121,806.344604 
	C137.213043,806.522400 137.563766,807.006348 137.915939,807.818787 
	C137.594238,807.648499 137.271072,807.149597 136.905121,806.344604 
z"/>
<path fill="#163672" opacity="1.000000" stroke="none" 
	d="
M837.110107,159.651184 
	C836.906372,159.742126 836.581604,159.585068 836.140747,159.178558 
	C836.346130,159.087128 836.667542,159.245148 837.110107,159.651184 
z"/>
<path fill="#153572" opacity="1.000000" stroke="none" 
	d="
M207.685883,147.940033 
	C207.716324,148.172226 207.469864,148.449371 206.927155,148.717651 
	C206.890259,148.467514 207.149612,148.226242 207.685883,147.940033 
z"/>
<path fill="#10306E" opacity="1.000000" stroke="none" 
	d="
M146.965118,204.207764 
	C147.227768,204.235870 147.358261,204.446671 147.488754,204.657486 
	C147.364822,204.709839 147.240906,204.762207 146.909927,204.818436 
	C146.702881,204.822311 146.832947,204.390472 146.965118,204.207764 
z"/>
<path fill="#0A2C6C" opacity="1.000000" stroke="none" 
	d="
M858.098877,177.676331 
	C857.890076,177.727188 857.572021,177.507874 857.159485,177.005280 
	C857.373230,176.950058 857.681458,177.178116 858.098877,177.676331 
z"/>
<path fill="#10306E" opacity="1.000000" stroke="none" 
	d="
M145.435303,206.735168 
	C145.578598,206.988480 145.459244,207.355560 145.050018,207.818420 
	C144.897629,207.559113 145.035141,207.204025 145.435303,206.735168 
z"/>
<path fill="#153572" opacity="1.000000" stroke="none" 
	d="
M197.736588,874.613037 
	C197.972946,874.465271 198.341858,874.561523 198.810974,874.944153 
	C198.563828,875.106018 198.216492,874.981506 197.736588,874.613037 
z"/>
<path fill="#0A2C6C" opacity="1.000000" stroke="none" 
	d="
M859.089722,178.676727 
	C858.878601,178.740555 858.559326,178.542480 858.151245,178.067139 
	C858.368835,177.998199 858.675232,178.206512 859.089722,178.676727 
z"/>
<path fill="#143471" opacity="1.000000" stroke="none" 
	d="
M822.325684,878.086060 
	C822.292603,877.854065 822.534668,877.567871 823.076416,877.297241 
	C823.117615,877.552429 822.859192,877.792175 822.325684,878.086060 
z"/>
<path fill="#0A2C6C" opacity="1.000000" stroke="none" 
	d="
M862.024780,181.714417 
	C861.841675,181.751114 861.550476,181.533569 861.151245,181.058777 
	C861.334412,181.021088 861.625549,181.240646 862.024780,181.714417 
z"/>
<path fill="#0A2C6C" opacity="1.000000" stroke="none" 
	d="
M860.094849,179.689209 
	C859.897888,179.746658 859.574036,179.549576 859.147949,179.078979 
	C859.353088,179.015213 859.660522,179.224945 860.094849,179.689209 
z"/>
<path fill="#10306E" opacity="1.000000" stroke="none" 
	d="
M871.136475,835.863770 
	C870.846741,835.778809 870.711365,835.559937 870.575989,835.341187 
	C870.713379,835.308411 870.850769,835.275635 871.202820,835.291931 
	C871.417480,835.340942 871.290955,835.729797 871.136475,835.863770 
z"/>
<path fill="#163672" opacity="1.000000" stroke="none" 
	d="
M829.270264,154.392822 
	C829.031982,154.535233 828.663025,154.431763 828.198730,154.038879 
	C828.448792,153.881958 828.794189,154.014450 829.270264,154.392822 
z"/>
<path fill="#0A2C6C" opacity="1.000000" stroke="none" 
	d="
M854.090820,173.684158 
	C853.885620,173.742020 853.569031,173.537628 853.150146,173.062332 
	C853.358337,173.001587 853.668884,173.211746 854.090820,173.684158 
z"/>
<path fill="#0A2C6C" opacity="1.000000" stroke="none" 
	d="
M855.100342,174.670654 
	C854.886780,174.738480 854.563477,174.544281 854.150513,174.072235 
	C854.370789,173.999130 854.680725,174.203888 855.100342,174.670654 
z"/>
<path fill="#10306E" opacity="1.000000" stroke="none" 
	d="
M885.579224,813.243530 
	C885.413940,812.997253 885.504211,812.631958 885.867432,812.155029 
	C886.038452,812.403748 885.936584,812.764099 885.579224,813.243530 
z"/>
<path fill="#0A2C6C" opacity="1.000000" stroke="none" 
	d="
M856.137573,175.673584 
	C855.933289,175.738937 855.595459,175.546783 855.153442,175.074234 
	C855.367432,175.001251 855.685791,175.208664 856.137573,175.673584 
z"/>
<path fill="#143471" opacity="1.000000" stroke="none" 
	d="
M146.834229,824.375000 
	C147.073959,824.327576 147.386612,824.552246 147.681259,825.084961 
	C147.411209,825.144348 147.159180,824.895752 146.834229,824.375000 
z"/>
<path fill="#10306E" opacity="1.000000" stroke="none" 
	d="
M878.522949,825.253052 
	C878.387329,825.005554 878.514587,824.639954 878.927368,824.172974 
	C879.070496,824.426025 878.928162,824.780579 878.522949,825.253052 
z"/>
<path fill="#10306E" opacity="1.000000" stroke="none" 
	d="
M142.427429,211.752884 
	C142.589218,211.996780 142.497482,212.365005 142.129623,212.843857 
	C141.960297,212.595398 142.067093,212.236298 142.427429,211.752884 
z"/>
<path fill="#143471" opacity="1.000000" stroke="none" 
	d="
M150.808167,830.361450 
	C151.037140,830.303284 151.369278,830.522339 151.731079,831.052979 
	C151.477600,831.122681 151.194458,830.880676 150.808167,830.361450 
z"/>
<path fill="#10306E" opacity="1.000000" stroke="none" 
	d="
M871.472168,835.242188 
	C871.372070,834.985962 871.560913,834.630981 872.048950,834.179077 
	C872.152527,834.435913 871.956787,834.789612 871.472168,835.242188 
z"/>
<path fill="#153572" opacity="1.000000" stroke="none" 
	d="
M174.802032,857.415649 
	C175.036865,857.344604 175.382675,857.555542 175.817932,858.068359 
	C175.575928,858.146057 175.244476,857.921814 174.802032,857.415649 
z"/>
<path fill="#143471" opacity="1.000000" stroke="none" 
	d="
M156.771744,838.371094 
	C156.993805,838.305542 157.342590,838.514465 157.753540,839.034424 
	C157.509964,839.112122 157.204224,838.878784 156.771744,838.371094 
z"/>
<path fill="#143471" opacity="1.000000" stroke="none" 
	d="
M157.680237,839.525024 
	C157.950562,839.434814 158.306671,839.608826 158.636230,840.103333 
	C158.328476,840.212341 158.047256,840.000793 157.680237,839.525024 
z"/>
<path fill="#153572" opacity="1.000000" stroke="none" 
	d="
M160.857147,843.339966 
	C161.070572,843.276917 161.401825,843.477783 161.816574,843.967651 
	C161.591705,844.039001 161.283340,843.821411 160.857147,843.339966 
z"/>
<path fill="#153572" opacity="1.000000" stroke="none" 
	d="
M165.654602,848.607483 
	C165.925964,848.500122 166.293701,848.646545 166.644867,849.118896 
	C166.335861,849.250366 166.043427,849.055786 165.654602,848.607483 
z"/>
<path fill="#153572" opacity="1.000000" stroke="none" 
	d="
M166.647003,849.652954 
	C166.919037,849.535950 167.289352,849.666504 167.642670,850.124023 
	C167.332199,850.267395 167.038742,850.083862 166.647003,849.652954 
z"/>
<path fill="#153572" opacity="1.000000" stroke="none" 
	d="
M167.640015,850.653381 
	C167.914978,850.538147 168.284378,850.668335 168.622437,851.124573 
	C168.305542,851.266724 168.020004,851.082825 167.640015,850.653381 
z"/>
<path fill="#153572" opacity="1.000000" stroke="none" 
	d="
M168.639526,851.690308 
	C168.914597,851.567932 169.283875,851.685486 169.620926,852.129028 
	C169.303711,852.280090 169.018723,852.105164 168.639526,851.690308 
z"/>
<path fill="#153572" opacity="1.000000" stroke="none" 
	d="
M169.642181,852.688721 
	C169.916092,852.565674 170.285660,852.683960 170.629364,853.128601 
	C170.314926,853.279968 170.026382,853.105042 169.642181,852.688721 
z"/>
<path fill="#153572" opacity="1.000000" stroke="none" 
	d="
M170.652573,853.671753 
	C170.922302,853.548096 171.292847,853.671448 171.660095,854.120850 
	C171.355682,854.270874 171.054535,854.094849 170.652573,853.671753 
z"/>
<path fill="#153572" opacity="1.000000" stroke="none" 
	d="
M173.744507,856.494629 
	C173.989670,856.392029 174.347076,856.555054 174.773926,857.021118 
	C174.514481,857.136169 174.185623,856.948181 173.744507,856.494629 
z"/>
<path fill="#FEFEFE" opacity="1.000000" stroke="none" 
	d="
M785.002014,425.000000 
	C785.002014,481.162628 785.102051,536.825500 784.950806,592.487793 
	C784.893433,613.589233 779.249329,632.940674 764.950989,649.079834 
	C756.118164,659.049805 745.317261,664.382202 731.604309,664.262207 
	C697.942627,663.967651 664.276611,664.202576 630.612427,664.151489 
	C611.787598,664.122925 592.962952,663.947876 574.138245,663.841492 
	C572.338562,663.831299 570.538757,663.840088 568.241821,663.840088 
	C568.241821,711.180298 568.241821,758.094666 568.241821,805.278015 
	C553.318726,805.278015 538.895325,805.278015 524.448975,805.278015 
	C524.448975,650.001160 524.448975,494.930847 524.448975,339.158386 
	C526.804810,339.158386 528.724609,339.158386 530.644348,339.158386 
	C596.972900,339.158386 663.302429,339.354828 729.629333,339.019714 
	C746.123535,338.936371 758.415283,345.596161 768.157043,358.228027 
	C779.810547,373.338654 784.396790,390.774811 784.978394,409.502045 
	C785.133484,414.496796 785.001953,419.500427 785.002014,425.000000 
M706.362671,591.837219 
	C708.442688,591.837219 710.522766,591.837219 712.538940,591.837219 
	C712.538940,531.425110 712.538940,471.835938 712.538940,412.054688 
	C664.351868,412.054688 616.463806,412.054688 568.561401,412.054688 
	C568.561401,472.173737 568.561401,531.874084 568.561401,591.837219 
	C614.438293,591.837219 659.915344,591.837219 706.362671,591.837219 
z"/>
<path fill="#FEFEFE" opacity="1.000000" stroke="none" 
	d="
M254.656998,622.306213 
	C253.005402,611.945068 250.266357,601.961731 250.199402,591.960632 
	C249.793442,531.317932 249.892639,470.670898 250.055481,410.025940 
	C250.110275,389.616333 255.835724,370.962494 269.392242,355.213806 
	C278.468811,344.669525 289.667450,339.206696 303.931549,339.344879 
	C337.416656,339.669342 370.907043,339.448730 404.395294,339.448730 
	C425.031982,339.448730 445.668671,339.448730 466.813110,339.448730 
	C466.813110,315.490295 466.813110,291.754089 466.813110,267.737396 
	C481.577362,267.737396 495.834808,267.737396 510.468140,267.737396 
	C510.468140,399.858276 510.468140,531.846497 510.468140,664.551270 
	C508.198853,664.551270 506.268494,664.551270 504.338104,664.551270 
	C438.694458,664.551270 373.048309,664.230225 307.408752,664.747742 
	C287.834839,664.902100 273.775970,656.917603 263.728333,640.987854 
	C260.127411,635.278870 257.743683,628.802185 254.656998,622.306213 
M336.506134,591.998779 
	C379.923065,591.998779 423.339996,591.998779 466.707977,591.998779 
	C466.707977,531.369812 466.707977,471.606384 466.707977,411.812256 
	C418.507660,411.812256 370.598816,411.812256 322.428345,411.812256 
	C322.428345,472.062042 322.428345,531.787781 322.428345,591.998779 
	C326.931488,591.998779 331.220856,591.998779 336.506134,591.998779 
z"/>
<path fill="#2B4E84" opacity="1.000000" stroke="none" 
	d="
M705.877502,591.837219 
	C659.915344,591.837219 614.438293,591.837219 568.561401,591.837219 
	C568.561401,531.874084 568.561401,472.173737 568.561401,412.054688 
	C616.463806,412.054688 664.351868,412.054688 712.538940,412.054688 
	C712.538940,471.835938 712.538940,531.425110 712.538940,591.837219 
	C710.522766,591.837219 708.442688,591.837219 705.877502,591.837219 
z"/>
<path fill="#2B4E83" opacity="1.000000" stroke="none" 
	d="
M336.008179,591.998779 
	C331.220856,591.998779 326.931488,591.998779 322.428345,591.998779 
	C322.428345,531.787781 322.428345,472.062042 322.428345,411.812256 
	C370.598816,411.812256 418.507660,411.812256 466.707977,411.812256 
	C466.707977,471.606384 466.707977,531.369812 466.707977,591.998779 
	C423.339996,591.998779 379.923065,591.998779 336.008179,591.998779 
z"/>
</svg>